<svg width="46" height="35" viewBox="0 0 46 35" fill="none" xmlns="http://www.w3.org/2000/svg">
<g clip-path="url(#clip0_735_1105)">
<path d="M45.212 4.31635L41.6133 0.771357C41.0913 0.25716 40.4639 -0.00488281 39.7462 -0.00488281C39.0285 -0.00488281 38.4061 0.252216 37.8841 0.771357L16.7186 21.626L8.11086 13.1467C7.58887 12.6325 6.9665 12.3754 6.24877 12.3754C5.53104 12.3754 4.90867 12.6325 4.38669 13.1467L0.787998 16.6917C0.266012 17.2059 0 17.819 0 18.526C0 19.233 0.260993 19.8461 0.787998 20.3603L14.8515 34.2189C15.3785 34.7331 15.9959 34.9902 16.7186 34.9902C17.4414 34.9902 18.0587 34.7331 18.5807 34.2189L45.212 7.99484C45.734 7.48064 46 6.86756 46 6.16054C46 5.45352 45.739 4.83549 45.212 4.32129V4.31635Z" fill="#0070B3"/>
</g>
<defs>
<clipPath id="clip0_735_1105">
<rect width="46" height="35" fill="white"/>
</clipPath>
</defs>
</svg>
