<svg width="70" height="70" viewBox="0 0 70 70" fill="none" xmlns="http://www.w3.org/2000/svg">
<path fill-rule="evenodd" clip-rule="evenodd" d="M34.9999 64.1667C51.1082 64.1667 64.1666 51.1083 64.1666 35C64.1666 18.8917 51.1082 5.83337 34.9999 5.83337C18.8916 5.83337 5.83325 18.8917 5.83325 35C5.83325 51.1083 18.8916 64.1667 34.9999 64.1667ZM25.1811 41.5274C27.5818 44.768 31.1455 46.7261 34.9999 46.7261C38.8542 46.7261 42.4181 44.768 44.8188 41.5274C45.7776 40.233 47.493 39.5863 48.9489 40.2756C50.4047 40.9649 51.0429 42.7192 50.1565 44.0642C46.8158 49.1338 41.3364 52.5594 35 52.5594C28.6635 52.5594 23.184 49.1338 19.8433 44.0642C18.957 42.7192 19.5951 40.9649 21.051 40.2756C22.5069 39.5863 24.2222 40.233 25.1811 41.5274ZM40.8333 27.7084C40.8333 25.2921 42.792 23.3334 45.2082 23.3334C47.6245 23.3334 49.5832 25.2921 49.5832 27.7084C49.5832 30.1246 47.6245 32.0834 45.2082 32.0834C42.792 32.0834 40.8333 30.1246 40.8333 27.7084ZM24.7916 23.3334C22.3753 23.3334 20.4166 25.2921 20.4166 27.7084C20.4166 30.1246 22.3753 32.0834 24.7916 32.0834C27.2078 32.0834 29.1666 30.1246 29.1666 27.7084C29.1666 25.2921 27.2078 23.3334 24.7916 23.3334Z" fill="#BE1622"/>
</svg>
