<svg width="56" height="56" viewBox="0 0 56 56" fill="none" xmlns="http://www.w3.org/2000/svg">
<path d="M28 55.9999C43.4639 55.9999 55.9999 43.4639 55.9999 28C55.9999 12.536 43.4639 0 28 0C12.536 0 0 12.536 0 28C0 43.4639 12.536 55.9999 28 55.9999Z" fill="#D1D1D6"/>
<path d="M38.8991 36.0956L40.1395 28H32.3746V22.7472C32.3746 20.5343 33.4574 18.3726 36.9382 18.3726H40.4702V11.4819C40.4702 11.4819 37.2651 10.9346 34.2016 10.9346C27.8071 10.9346 23.6254 14.8091 23.6254 21.8298V28H16.5142V36.0956H23.6254V55.6613C25.0508 55.8857 26.5116 55.9999 28 55.9999C29.4884 55.9999 30.9492 55.8818 32.3746 55.6613V36.0956H38.8991Z" fill="#757575"/>
</svg>
