<svg width="36" height="36" viewBox="0 0 36 36" fill="none" xmlns="http://www.w3.org/2000/svg">
<g clip-path="url(#clip0_737_1157)">
<path d="M25.2757 0H10.7249C4.81106 0 0 4.81106 0 10.7249V25.2757C0 31.1896 4.81106 36.0006 10.7249 36.0006H25.2757C31.1896 36.0006 36.0006 31.1896 36.0006 25.2757V10.7249C36.0006 4.81106 31.1896 0 25.2757 0ZM32.3786 25.2757C32.3786 29.1983 29.1983 32.3786 25.2757 32.3786H10.7249C6.80239 32.3786 3.62202 29.1983 3.62202 25.2757V10.7249C3.62202 6.80173 6.80239 3.62202 10.7249 3.62202H25.2757C29.1983 3.62202 32.3786 6.80239 32.3786 10.7249V25.2757Z" fill="#757575"/>
<path d="M18.0004 8.68896C12.8665 8.68896 8.68921 12.8657 8.68921 18.0001C8.68921 23.1346 12.8659 27.3113 18.0004 27.3113C23.1348 27.3113 27.3115 23.1346 27.3115 18.0001C27.3115 12.8657 23.1348 8.68896 18.0004 8.68896ZM18.0004 23.6892C14.8579 23.6892 12.3112 21.1419 12.3112 18.0001C12.3112 14.8583 14.8585 12.311 18.0004 12.311C21.1422 12.311 23.6895 14.8583 23.6895 18.0001C23.6895 21.1419 21.1422 23.6892 18.0004 23.6892Z" fill="#757575"/>
<path d="M27.329 10.99C28.5612 10.99 29.5601 9.99113 29.5601 8.75893C29.5601 7.52673 28.5612 6.52783 27.329 6.52783C26.0968 6.52783 25.0979 7.52673 25.0979 8.75893C25.0979 9.99113 26.0968 10.99 27.329 10.99Z" fill="#757575"/>
</g>
<defs>
<clipPath id="clip0_737_1157">
<rect width="36" height="36" fill="white"/>
</clipPath>
</defs>
</svg>
